# xmcd
#
# Track frame offsets: 
#        150
#        11427
#        21202
#        31700
#        45682
#        58437
#        64862
#        75930
#        93315
#        105660
#        125435
#        148935
#        163270
#        174340
#        183497
#        193920
#
# Disc length: 2818 seconds
#
# Revision: 6
# Processed by: cddbd v1.5.2PL0 Copyright (c) Steve Scherf et al.
# Submitted via: ExactAudioCopy v0.99pb4
#
DISCID=d80b0010
DTITLE=Eric Clapton - Eric Clapton and Yardbirds and Jimmy Page
DYEAR=1994
DGENRE=Blues
TTITLE0=Snake drive
TTITLE1=Tribute to Elmore
TTITLE2=West coast idea
TTITLE3=Draggin' my tail
TTITLE4=Freight loader
TTITLE5=Choker
TTITLE6=Miles road
TTITLE7=Little red rooster
TTITLE8=Highway 49
TTITLE9=Wang-Dang-Doodle
TTITLE10=23 hours too long
TTITLE11=Out on the water coast
TTITLE12=Boom Boom
TTITLE13=I ain't got you
TTITLE14=Honey in your hips
TTITLE15=Too much monkey business
EXTD=YEAR: 1994
EXTT0=
EXTT1=
EXTT2=
EXTT3=Eric Clapton and Jimmy Page
EXTT4=Eric Clapton and Jimmy Page
EXTT5=Eric Clapton and Jimmy Page
EXTT6=Eric Clapton and Jimmy Page
EXTT7=Eric Clapton and Jimmy Page
EXTT8=
EXTT9=
EXTT10=
EXTT11=
EXTT12=Eric Clapton and The Yardbirds
EXTT13=Eric Clapton and The Yardbirds
EXTT14=Eric Clapton and The Yardbirds
EXTT15=Eric Clapton and The Yardbirds
PLAYORDER=
